<?xml version="1.0" encoding="UTF-8"?>
<svg id="Layer_2" data-name="Layer 2" xmlns="http://www.w3.org/2000/svg" viewBox="0 0 567.18 531.94">
  <defs>
    <style>
      .cls-1 {
        fill: none;
      }

      .cls-2 {
        fill: #11294b;
      }
    </style>
  </defs>
  <g id="Layer_1-2" data-name="Layer 1">
    <g>
      <rect class="cls-1" width="567.18" height="531.94"/>
      <g>
        <g>
          <rect class="cls-2" x="121.75" y="400.21" width="6.74" height="43.9"/>
          <rect class="cls-2" x="447.71" y="400.21" width="6.74" height="43.9"/>
          <polygon class="cls-2" points="169.51 400.2 135.23 400.2 135.23 406.94 149 406.94 149 444.11 155.74 444.11 155.74 406.94 169.51 406.94 169.51 400.2"/>
          <path class="cls-2" d="m419.02,400.2h-8.87s-5.9,0-5.9,0v43.9h6.74s8.03,0,8.03,0c12.1,0,21.95-9.85,21.95-21.95s-9.85-21.95-21.95-21.95Zm0,37.16h-8.03v-30.42h8.03c8.39,0,15.21,6.82,15.21,15.21s-6.82,15.21-15.21,15.21Z"/>
          <path class="cls-2" d="m296.01,400.2h-13.59s-5.9,0-5.9,0v43.9h6.74v-17.14h12.75c7.38,0,13.38-6,13.38-13.38s-6-13.38-13.38-13.38Zm0,20.03h-12.75v-13.28h12.75c3.66,0,6.64,2.98,6.64,6.64s-2.98,6.64-6.64,6.64Z"/>
          <path class="cls-2" d="m375.55,406.95c8.38,0,15.21,6.82,15.21,15.21s-6.82,15.21-15.21,15.21-15.21-6.82-15.21-15.21,6.82-15.21,15.21-15.21m0-6.74c-12.12,0-21.95,9.83-21.95,21.95s9.83,21.95,21.95,21.95,21.95-9.83,21.95-21.95-9.83-21.95-21.95-21.95h0Z"/>
          <polygon class="cls-2" points="74.11 410.66 86.62 444.11 86.62 444.11 93.82 444.11 93.82 444.11 106.33 410.66 106.33 444.11 113.08 444.11 113.08 400.21 110.24 400.21 110.24 400.21 103.04 400.21 90.22 434.48 77.4 400.21 70.2 400.21 70.2 400.21 67.37 400.21 67.37 444.11 74.11 444.11 74.11 410.66"/>
          <path class="cls-2" d="m222.84,444.09l4.45-11.9h17.36l4.45,11.9h7.2l-16.42-43.9h-7.82l-16.42,43.9h7.2Zm13.13-35.1l6.16,16.46h-12.31l6.16-16.46Z"/>
          <path class="cls-2" d="m211.78,444.11l-12.76-17.56c5.79-1.47,10.1-6.71,10.1-12.96,0-7.38-6-13.38-13.38-13.38h-13.59s-5.9,0-5.9,0v43.9h6.74v-17.14h8.01l12.45,17.14h8.33Zm-28.79-37.16h12.75c3.66,0,6.64,2.98,6.64,6.64s-2.98,6.64-6.64,6.64h-12.75v-13.28Z"/>
          <path class="cls-2" d="m351.67,444.11l-12.76-17.56c5.79-1.47,10.1-6.71,10.1-12.96,0-7.38-6-13.38-13.38-13.38h-13.59s-5.9,0-5.9,0v43.9h6.74v-17.14h8.01l12.45,17.14h8.33Zm-28.79-37.16h12.75c3.66,0,6.64,2.98,6.64,6.64s-2.98,6.64-6.64,6.64h-12.75v-13.28Z"/>
          <polygon class="cls-2" points="499.68 444.05 499.72 400.21 492.92 400.21 492.93 433.67 471.18 400.21 463.13 400.2 463.14 400.21 463.13 400.21 463.15 444.11 469.89 444.11 469.92 410.65 491.67 444.11 492.93 444.11 499.68 444.11 499.72 444.11 499.71 444.1 499.68 444.05"/>
        </g>
        <g>
          <path class="cls-2" d="m288.34,84.6h0c2.04,0,4.05.07,6.06.15-1.95-.09-3.97-.15-6.05-.15Z"/>
          <path class="cls-2" d="m282.26,84.75c2.01-.08,4.03-.15,6.07-.15-2.1,0-4.12.06-6.07.15Z"/>
          <path class="cls-2" d="m150.06,222.88c0,36.83,14.41,70.28,37.9,95.05l15.93-204.51c-32.73,25.28-53.83,64.9-53.83,109.46Z"/>
          <path class="cls-2" d="m372.77,113.41l15.94,204.51c23.48-24.77,37.9-58.22,37.9-95.05,0-44.57-21.1-84.18-53.84-109.46Z"/>
          <path class="cls-2" d="m245.79,146.6h-16.33l-15.03,193.12c14.37,9.12,30.53,15.65,47.86,18.96v-.03s-16.5-212.04-16.5-212.04Z"/>
          <path class="cls-2" d="m339.05,146.6h-8.17l-16.09,206.65-.42,5.39v.03c17.33-3.3,33.51-9.84,47.88-18.96l-15.04-193.12h-8.15Z"/>
          <path class="cls-2" d="m263.66,89.42l.42,5.4,16.1,206.64h16.32l16.52-212.04c0-.86-1.17-1.67-3.2-2.37-2.66-.92-6.83-1.65-11.84-2.07-1.18-.08-2.37-.19-3.58-.24-2.01-.08-4.02-.15-6.06-.15h0c-2.04,0-4.05.07-6.07.15-1.32.06-2.62.18-3.93.26-8.64.76-14.67,2.44-14.67,4.41Z"/>
          <path class="cls-2" d="m278.33,85.01c1.32-.09,2.61-.2,3.93-.26-1.36.07-2.67.15-3.93.26Z"/>
          <path class="cls-2" d="m294.39,84.75c1.2.05,2.39.16,3.58.24-1.15-.1-2.34-.18-3.58-.24Z"/>
        </g>
      </g>
    </g>
  </g>
</svg>